<svg width="80" height="20" viewBox="0 0 80 20" fill="none" xmlns="http://www.w3.org/2000/svg">
<rect width="80" height="20" rx="5" fill="#1B1A1C"/>
<path d="M13.2693 2.25475L18.6085 5.44737C18.7409 5.52655 18.8555 5.63401 18.9447 5.7626C19.0339 5.8912 19.0957 6.03798 19.1259 6.19321L20.3757 12.6191C20.4203 12.8479 20.3945 13.0855 20.3019 13.2983C20.2093 13.5112 20.0545 13.6886 19.8595 13.8056L13.2696 17.7453C13.1058 17.8432 12.92 17.8947 12.7309 17.8947C12.5417 17.8947 12.356 17.8432 12.1922 17.7453L5.6018 13.8051C5.40659 13.6883 5.25167 13.511 5.15886 13.2983C5.06604 13.0855 5.04 12.848 5.0844 12.6191L6.33395 6.19445C6.36415 6.03922 6.42591 5.89244 6.51512 5.76384C6.60433 5.63525 6.71894 5.52779 6.85135 5.44861L12.1919 2.25475C12.3557 2.15682 12.5415 2.10526 12.7306 2.10526C12.9198 2.10526 13.1055 2.15682 13.2693 2.25475V2.25475Z" fill="#FB923C"/>
<path d="M16.8283 7.65166L13.0294 9.92314C12.9384 9.97754 12.8352 10.0062 12.7301 10.0062C12.6251 10.0062 12.5218 9.97754 12.4309 9.92314L8.63193 7.65166C8.54094 7.59725 8.46539 7.519 8.41286 7.42477C8.36033 7.33054 8.33267 7.22365 8.33267 7.11484C8.33267 7.00604 8.36033 6.89915 8.41286 6.80492C8.46539 6.71069 8.54094 6.63244 8.63193 6.57803L12.4309 4.3068C12.5218 4.25239 12.6251 4.22375 12.7301 4.22375C12.8352 4.22375 12.9384 4.25239 13.0294 4.3068L16.8283 6.57803C16.9193 6.63244 16.9949 6.71069 17.0474 6.80492C17.0999 6.89915 17.1276 7.00604 17.1276 7.11484C17.1276 7.22365 17.0999 7.33054 17.0474 7.42477C16.9949 7.519 16.9193 7.59725 16.8283 7.65166V7.65166Z" fill="#191D29"/>
<path d="M15.467 6.95639C15.447 6.94522 15.425 6.93839 15.4024 6.93631L12.9842 6.66034C12.9796 6.65999 12.9752 6.65855 12.9712 6.65612C12.9694 6.65521 12.9677 6.65387 12.9664 6.65219C12.9652 6.65051 12.9643 6.64855 12.9638 6.64645L12.8441 5.50786C12.8423 5.49755 12.8381 5.48785 12.8319 5.47957C12.8257 5.47129 12.8176 5.46467 12.8084 5.46025C12.7813 5.44573 12.7511 5.43815 12.7206 5.43815C12.69 5.43815 12.6599 5.44573 12.6327 5.46025L12.0409 5.81656C12.0301 5.82136 12.0209 5.82936 12.0145 5.83956C12.0081 5.84975 12.0048 5.86168 12.0049 5.87384L12.0909 6.61868L12.174 7.11136C12.1742 7.11388 12.1736 7.11641 12.1724 7.11859C12.1711 7.12076 12.1693 7.12249 12.167 7.12351L12.1531 7.13169C12.1478 7.13456 12.1418 7.13606 12.1358 7.13606C12.1297 7.13606 12.1238 7.13456 12.1184 7.13169L11.0705 6.50462C11.0433 6.49038 11.0134 6.48295 10.983 6.48295C10.9525 6.48295 10.9226 6.49038 10.8954 6.50462L10.3328 6.84308C10.2849 6.87209 10.2849 6.9192 10.3328 6.94821L12.9162 8.4922C12.9433 8.5065 12.9733 8.51396 13.0037 8.51396C13.0341 8.51396 13.0641 8.5065 13.0912 8.4922L13.6538 8.15375C13.7017 8.12474 13.7017 8.07763 13.6538 8.04862L12.9401 7.62313C12.9382 7.62226 12.9366 7.62092 12.9354 7.61923C12.9341 7.61754 12.9333 7.61556 12.9329 7.61346L12.8963 7.24947C12.8963 7.2398 12.91 7.23211 12.9258 7.2341L14.7358 7.45428C14.7743 7.45973 14.8135 7.45262 14.8478 7.43394L15.4665 7.06202C15.518 7.03102 15.5115 6.98391 15.4665 6.95664" fill="#FB923C"/>
<path d="M12.3066 11.1545V14.5459C12.3067 14.6549 12.2791 14.762 12.2265 14.8563C12.1739 14.9507 12.0982 15.029 12.0071 15.0835C11.9159 15.1379 11.8126 15.1665 11.7073 15.1664C11.6021 15.1662 11.4988 15.1374 11.4078 15.0828L7.3807 12.6742C7.27224 12.6092 7.18618 12.5107 7.13464 12.3925C7.0831 12.2743 7.06867 12.1423 7.09339 12.0151L7.68405 8.97695C7.7028 8.88052 7.74344 8.7901 7.80261 8.71315C7.86179 8.63621 7.93779 8.57495 8.02435 8.53445C8.1109 8.49394 8.20552 8.47535 8.30039 8.4802C8.39525 8.48506 8.48764 8.51323 8.56992 8.56238L12.0064 10.6176C12.0975 10.6719 12.1733 10.7501 12.226 10.8444C12.2787 10.9386 12.3065 11.0456 12.3066 11.1545Z" fill="#191D27"/>
<path d="M13.1537 11.1562V14.5464C13.1537 14.6553 13.1813 14.7621 13.2339 14.8564C13.2864 14.9506 13.362 15.0289 13.453 15.0833C13.544 15.1377 13.6472 15.1663 13.7522 15.1663C13.8573 15.1663 13.9605 15.1377 14.0515 15.0833L18.0796 12.6749C18.1881 12.61 18.2742 12.5114 18.3257 12.3932C18.3773 12.2749 18.3917 12.1428 18.3669 12.0156L17.7765 8.97746C17.7577 8.88105 17.717 8.79065 17.6578 8.71374C17.5987 8.63682 17.5227 8.57559 17.4361 8.53511C17.3495 8.49463 17.2549 8.47606 17.1601 8.48093C17.0652 8.4858 16.9729 8.51398 16.8906 8.56313L13.453 10.6184C13.3618 10.6729 13.2862 10.7513 13.2336 10.8457C13.1811 10.9401 13.1535 11.0472 13.1537 11.1562V11.1562Z" fill="#191D27"/>
<path d="M24.348 13.0526V4.32536H25.4048V8.65491H25.507L29.4275 4.32536H30.8082L27.1434 8.26286L30.8082 13.0526H29.5298L26.4957 8.99582L25.4048 10.2231V13.0526H24.348ZM34.3036 13.189C33.6729 13.189 33.1289 13.0498 32.6715 12.7714C32.2169 12.4901 31.8661 12.0981 31.6189 11.5952C31.3746 11.0896 31.2524 10.5015 31.2524 9.83104C31.2524 9.16059 31.3746 8.56968 31.6189 8.05832C31.8661 7.54411 32.2098 7.14354 32.6502 6.85661C33.0933 6.56684 33.6104 6.42195 34.2013 6.42195C34.5422 6.42195 34.8789 6.47877 35.2112 6.59241C35.5436 6.70604 35.8462 6.8907 36.1189 7.14639C36.3916 7.39923 36.609 7.73445 36.7709 8.15207C36.9328 8.56968 37.0138 9.08388 37.0138 9.69468V10.1208H31.9683V9.2515H35.9911C35.9911 8.88218 35.9172 8.55263 35.7695 8.26286C35.6246 7.97309 35.4172 7.7444 35.1473 7.57678C34.8803 7.40917 34.5649 7.32536 34.2013 7.32536C33.8007 7.32536 33.4541 7.42479 33.1615 7.62366C32.8717 7.81968 32.6487 8.07536 32.4925 8.3907C32.3362 8.70604 32.2581 9.04411 32.2581 9.40491V9.98445C32.2581 10.4788 32.3433 10.8978 32.5138 11.2416C32.6871 11.5825 32.9271 11.8424 33.234 12.0214C33.5408 12.1975 33.8973 12.2856 34.3036 12.2856C34.5678 12.2856 34.8064 12.2487 35.0195 12.1748C35.2354 12.0981 35.4215 11.9845 35.5777 11.8339C35.734 11.6805 35.8547 11.4901 35.9399 11.2629L36.9115 11.5356C36.8092 11.8651 36.6374 12.1549 36.3959 12.4049C36.1544 12.6521 35.8561 12.8452 35.501 12.9845C35.1459 13.1208 34.7467 13.189 34.3036 13.189ZM38.9921 15.5072C38.8217 15.5072 38.6697 15.493 38.5362 15.4646C38.4026 15.439 38.3103 15.4134 38.2592 15.3879L38.5149 14.5015C38.7592 14.564 38.9751 14.5867 39.1626 14.5697C39.3501 14.5526 39.5163 14.4688 39.6612 14.3183C39.8089 14.1705 39.9438 13.9305 40.066 13.5981L40.2535 13.0867L37.833 6.50718H38.924L40.7308 11.7231H40.799L42.6058 6.50718H43.6967L40.9183 14.0072C40.7933 14.3452 40.6384 14.6251 40.4538 14.8467C40.2691 15.0711 40.0546 15.2373 39.8103 15.3452C39.5688 15.4532 39.2961 15.5072 38.9921 15.5072ZM45.0241 13.0526V6.50718H45.9957V7.52991H46.0809C46.2173 7.18048 46.4374 6.90917 46.7414 6.71599C47.0454 6.51996 47.4105 6.42195 47.8366 6.42195C48.2684 6.42195 48.6278 6.51996 48.9147 6.71599C49.2045 6.90917 49.4303 7.18048 49.5923 7.52991H49.6605C49.8281 7.19184 50.0795 6.92337 50.4147 6.72451C50.7499 6.52281 51.1519 6.42195 51.6207 6.42195C52.2059 6.42195 52.6846 6.60519 53.0568 6.97167C53.4289 7.33531 53.615 7.90207 53.615 8.67195V13.0526H52.6093V8.67195C52.6093 8.189 52.4772 7.84383 52.213 7.63644C51.9488 7.42906 51.6377 7.32536 51.2798 7.32536C50.8195 7.32536 50.463 7.46457 50.2102 7.74298C49.9573 8.01854 49.8309 8.36798 49.8309 8.79127V13.0526H48.8082V8.56968C48.8082 8.19752 48.6874 7.89781 48.446 7.67053C48.2045 7.44042 47.8934 7.32536 47.5127 7.32536C47.2514 7.32536 47.007 7.39496 46.7798 7.53417C46.5553 7.67337 46.3735 7.86656 46.2343 8.11371C46.098 8.35803 46.0298 8.6407 46.0298 8.96173V13.0526H45.0241ZM57.3799 13.206C56.9651 13.206 56.5887 13.1279 56.2507 12.9717C55.9126 12.8126 55.6441 12.5839 55.4453 12.2856C55.2464 11.9845 55.147 11.6208 55.147 11.1947C55.147 10.8197 55.2208 10.5157 55.3686 10.2827C55.5163 10.047 55.7137 9.86229 55.9609 9.72877C56.208 9.59525 56.4808 9.49582 56.7791 9.43048C57.0802 9.36229 57.3828 9.30832 57.6867 9.26854C58.0845 9.21741 58.4069 9.17906 58.6541 9.15349C58.9041 9.12508 59.0859 9.0782 59.1995 9.01286C59.316 8.94752 59.3742 8.83389 59.3742 8.67195V8.63786C59.3742 8.21741 59.2592 7.8907 59.0291 7.65775C58.8018 7.42479 58.4566 7.30832 57.9936 7.30832C57.5134 7.30832 57.137 7.41343 56.8643 7.62366C56.5916 7.83389 56.3998 8.05832 56.289 8.29695L55.3345 7.95604C55.5049 7.55832 55.7322 7.24866 56.0163 7.02707C56.3032 6.80263 56.6157 6.64638 56.9538 6.55832C57.2947 6.46741 57.6299 6.42195 57.9595 6.42195C58.1697 6.42195 58.4112 6.44752 58.6839 6.49866C58.9595 6.54695 59.2251 6.64781 59.4808 6.80121C59.7393 6.95462 59.9538 7.18616 60.1242 7.49582C60.2947 7.80548 60.3799 8.22025 60.3799 8.74014V13.0526H59.3742V12.1663H59.3231C59.2549 12.3083 59.1413 12.4603 58.9822 12.6222C58.8231 12.7842 58.6115 12.922 58.3472 13.0356C58.083 13.1492 57.7606 13.206 57.3799 13.206ZM57.5333 12.3026C57.9311 12.3026 58.2663 12.2245 58.539 12.0683C58.8146 11.912 59.022 11.7103 59.1612 11.4631C59.3032 11.216 59.3742 10.956 59.3742 10.6833V9.76286C59.3316 9.814 59.2379 9.86087 59.093 9.90349C58.9509 9.94326 58.7862 9.97877 58.5987 10.01C58.414 10.0384 58.2336 10.064 58.0575 10.0867C57.8842 10.1066 57.7436 10.1237 57.6356 10.1379C57.3742 10.172 57.1299 10.2274 56.9026 10.3041C56.6782 10.3779 56.4964 10.4901 56.3572 10.6407C56.2208 10.7884 56.1526 10.9901 56.1526 11.2458C56.1526 11.5952 56.2819 11.8595 56.5404 12.0384C56.8018 12.2146 57.1328 12.3026 57.5333 12.3026ZM66.8519 7.97309L65.9485 8.22877C65.8916 8.0782 65.8078 7.9319 65.697 7.78985C65.5891 7.64496 65.4414 7.52565 65.2539 7.4319C65.0664 7.33815 64.8263 7.29127 64.5337 7.29127C64.1331 7.29127 63.7993 7.3836 63.5323 7.56826C63.2681 7.75008 63.136 7.98161 63.136 8.26286C63.136 8.51286 63.2269 8.71031 63.4087 8.85519C63.5905 9.00008 63.8746 9.12082 64.261 9.21741L65.2325 9.45604C65.8178 9.59809 66.2539 9.81542 66.5408 10.108C66.8277 10.3978 66.9712 10.7714 66.9712 11.2288C66.9712 11.6038 66.8632 11.939 66.6473 12.2345C66.4342 12.5299 66.136 12.7629 65.7524 12.9333C65.3689 13.1038 64.9229 13.189 64.4144 13.189C63.7467 13.189 63.1942 13.0441 62.7567 12.7543C62.3192 12.4646 62.0422 12.0413 61.9257 11.4845L62.8803 11.2458C62.9712 11.5981 63.1431 11.8623 63.3959 12.0384C63.6516 12.2146 63.9854 12.3026 64.3973 12.3026C64.8661 12.3026 65.2382 12.2032 65.5138 12.0043C65.7922 11.8026 65.9314 11.5612 65.9314 11.2799C65.9314 11.0526 65.8519 10.8623 65.6928 10.7089C65.5337 10.5526 65.2894 10.4362 64.9598 10.3595L63.8689 10.1038C63.2695 9.96173 62.8291 9.74156 62.5479 9.44326C62.2695 9.14212 62.1303 8.7657 62.1303 8.314C62.1303 7.94468 62.234 7.61798 62.4414 7.33389C62.6516 7.04979 62.9371 6.82678 63.2979 6.66485C63.6615 6.50292 64.0735 6.42195 64.5337 6.42195C65.1814 6.42195 65.6899 6.564 66.0592 6.84809C66.4314 7.13218 66.6956 7.50718 66.8519 7.97309ZM69.4907 9.11514V13.0526H68.485V4.32536H69.4907V7.52991H69.5759C69.7293 7.19184 69.9595 6.92337 70.2663 6.72451C70.5759 6.52281 70.9879 6.42195 71.5021 6.42195C71.9481 6.42195 72.3387 6.51144 72.674 6.69042C73.0092 6.86656 73.2691 7.13786 73.4538 7.50434C73.6413 7.86798 73.735 8.33104 73.735 8.89354V13.0526H72.7293V8.96173C72.7293 8.44184 72.5944 8.03985 72.3245 7.75576C72.0575 7.46883 71.6867 7.32536 71.2123 7.32536C70.8828 7.32536 70.5873 7.39496 70.3259 7.53417C70.0674 7.67337 69.8629 7.8765 69.7123 8.14354C69.5646 8.41059 69.4907 8.73445 69.4907 9.11514Z" fill="white"/>
</svg>
